<?xml version="1.0" encoding="UTF-8" standalone="no"?>
<!-- Uploaded to: SVG Repo, www.svgrepo.com, Generator: SVG Repo Mixer Tools -->

<svg
   fill="#ffffff"
   height="48"
   width="48"
   version="1.1"
   id="Capa_1"
   viewBox="0 0 150.73178 168.5001"
   xml:space="preserve"
   sodipodi:docname="punch.svg"
   inkscape:version="1.3.1 (9b9bdc1480, 2023-11-25, custom)"
   xmlns:inkscape="http://www.inkscape.org/namespaces/inkscape"
   xmlns:sodipodi="http://sodipodi.sourceforge.net/DTD/sodipodi-0.dtd"
   xmlns="http://www.w3.org/2000/svg"
   xmlns:svg="http://www.w3.org/2000/svg">
<defs
   id="defs1" /><sodipodi:namedview
   id="namedview1"
   pagecolor="#505050"
   bordercolor="#eeeeee"
   borderopacity="1"
   inkscape:showpageshadow="0"
   inkscape:pageopacity="0"
   inkscape:pagecheckerboard="0"
   inkscape:deskcolor="#505050"
   inkscape:zoom="1.02"
   inkscape:cx="174.01961"
   inkscape:cy="320.58824"
   inkscape:window-width="1866"
   inkscape:window-height="1016"
   inkscape:window-x="0"
   inkscape:window-y="0"
   inkscape:window-maximized="1"
   inkscape:current-layer="g1" />
<g
   id="g1"
   transform="matrix(1,0,0,-1,-57.933342,188.58299)">
	<path
   d="m 183.70812,54.715881 c -0.357,-0.544 -0.598,-1.162 -0.696,-1.806 l -4.403,-28.871 c -0.341,-2.228 -2.257,-3.956 -4.511,-3.956 h -79.825 c -1.204,0 1.140011,21.570987 -3.755085,25.602365 -3.346883,6.255303 -12.370764,29.525312 -22.919426,40.736729 -9.871824,10.492055 -14.665491,30.415825 -2.142016,46.722115 0,0 11.665316,8.38205 11.725688,17.5248 l 0.149835,22.69099 c 0.124482,18.85159 26.312004,18.321 34.010004,8.552 1.32,-1.676 3.682,-2.182 5.563,-1.175 6.572,3.519 20.571,2.86 25.363,-6.054 1.156,-2.15 3.74,-3.165 5.941,-2.108 7.878,3.784 24.126,3.233 27.307,-8.71 0.598,-2.242 2.703,-3.699 5.006,-3.405 7.13,0.909 20.86,-0.509 26.447,-22.856 1.123,-4.491 1.696,-9.322 1.696,-14.467 -0.001,-19.089 -7.903,-42.452999 -24.957,-68.420999 z"
   id="path1"
   sodipodi:nodetypes="cccsscscssccccccccc" />
</g>
</svg>
