<?xml version="1.0" encoding="UTF-8" standalone="no"?>
<!-- Uploaded to: SVG Repo, www.svgrepo.com, Generator: SVG Repo Mixer Tools -->

<svg
   fill="#ffffff"
   height="48"
   width="48"
   version="1.1"
   id="Capa_1"
   viewBox="0 0 194.104 238.582"
   xml:space="preserve"
   sodipodi:docname="open.svg"
   inkscape:version="1.3.1 (9b9bdc1480, 2023-11-25, custom)"
   xmlns:inkscape="http://www.inkscape.org/namespaces/inkscape"
   xmlns:sodipodi="http://sodipodi.sourceforge.net/DTD/sodipodi-0.dtd"
   xmlns="http://www.w3.org/2000/svg"
   xmlns:svg="http://www.w3.org/2000/svg"><defs
   id="defs1" /><sodipodi:namedview
   id="namedview1"
   pagecolor="#505050"
   bordercolor="#eeeeee"
   borderopacity="1"
   inkscape:showpageshadow="0"
   inkscape:pageopacity="0"
   inkscape:pagecheckerboard="0"
   inkscape:deskcolor="#505050"
   inkscape:zoom="17"
   inkscape:cx="16.5"
   inkscape:cy="16.588235"
   inkscape:window-width="1866"
   inkscape:window-height="1016"
   inkscape:window-x="0"
   inkscape:window-y="0"
   inkscape:window-maximized="1"
   inkscape:current-layer="Capa_1" />
<g
   id="g1"
   transform="translate(-44.054995,-43.631)">
	<path
   d="m 225.154,89.395 c -0.521,0 -1.356,0.03 -1.888,0.093 -6.811,0.792 -12.108,6.838 -12.108,13.694 v 42.39 c 0,3.413 -1.777,6.514 -5.19,6.514 h -0.111 c -3.693,0 -7.698,-3.328 -7.698,-7.021 V 76.687 c 0,-6.856 -4.484,-12.901 -11.295,-13.694 -0.532,-0.062 -1.432,-0.092 -1.952,-0.092 -7.36,-0.001 -13.752,6.021 -13.752,13.381 v 69.028 c 0,3.558 -2.395,6.442 -5.952,6.442 -3.61,0 -6.048,-2.928 -6.048,-6.538 V 57.418 c 0,-6.857 -4.855,-12.902 -11.667,-13.694 -0.532,-0.063 -1.246,-0.093 -1.767,-0.093 -7.36,-10e-4 -13.567,6.021 -13.567,13.381 v 88.21 c 0,3.607 -2.934,6.53 -6.54,6.53 -3.563,0 -6.46,-2.888 -6.46,-6.45 V 76.687 c 0,-6.856 -4.726,-12.901 -11.538,-13.694 -0.532,-0.062 -1.311,-0.092 -1.831,-0.092 C 98.43,62.9 92.159,68.922 92.159,76.282 v 99.604 c 0,3.695 -2.644,6.164 -5.811,6.164 -1.458,0 -2.756,-0.523 -3.992,-1.691 L 66.576,165.37 c -2.576,-2.576 -5.924,-3.864 -9.32,-3.864 -3.396,0 -6.767,1.288 -9.343,3.864 -5.152,5.151 -5.14,13.582 0.012,18.734 l 56.407,74.39 c 0.006,0.008 0.013,0.018 0.014,0.027 l 1.412,18.574 c 0.221,2.931 2.665,4.99 5.602,4.99 0.003,0 0.005,0 0.008,0 l 98.451,0.128 c 2.816,-0.004 5.195,-1.99 5.563,-4.783 l 2.569,-19.518 c 0.109,-0.838 0.036,-1.607 0.493,-2.318 15.017,-23.391 19.715,-62.014 19.715,-103.841 v -48.976 c -0.001,-7.36 -5.646,-13.382 -13.005,-13.382 z"
   id="path1" />
	
</g>
</svg>
