<?xml version="1.0" encoding="UTF-8" standalone="no"?>
<!-- Uploaded to: SVG Repo, www.svgrepo.com, Generator: SVG Repo Mixer Tools -->

<svg
   fill="#ffffff"
   height="48"
   width="48"
   version="1.1"
   id="Capa_1"
   viewBox="0 0 153.7582 285.72361"
   xml:space="preserve"
   sodipodi:docname="scissors.svg"
   inkscape:version="1.3.1 (9b9bdc1480, 2023-11-25, custom)"
   xmlns:inkscape="http://www.inkscape.org/namespaces/inkscape"
   xmlns:sodipodi="http://sodipodi.sourceforge.net/DTD/sodipodi-0.dtd"
   xmlns="http://www.w3.org/2000/svg"
   xmlns:svg="http://www.w3.org/2000/svg">
<g
   id="g1"
   transform="translate(-41.243143,49.478604)">
	<path
   d="m 194.838,135.847 c -2.133,-22.22 -15.158,-25.655 -21.474,-25.995 -2.108,-0.113 -3.979,-1.308 -5.003,-3.153 -5.237,-9.439 -13.203,-11.707 -19.649,-11.707 -0.829,0 -1.634,0.038 -2.404,0.102 -0.169,0.014 -0.337,0.021 -0.502,0.021 -3.804,0 -6.652,-3.66 -5.688,-7.434 C 145.299,67.404 158.544,20.95 158.544,20.95 162.669,8.595 152.587,0.001 142.716,0 136.581,0 130.527,3.319 128.015,11.119 l -18.587,61.864 c -1.253,4.17 -4.841,6.267 -8.43,6.267 -3.528,0 -7.057,-2.026 -8.37,-6.1 L 74.875,18.064 C 72.761,9.278 66.081,5.424 59.323,5.424 c -9.626,0 -19.412,7.816 -16.398,20.332 l 19.132,79.563 c 0.764,3.175 -1.168,6.354 -4.329,7.171 -6.207,1.604 -15.255,6.709 -16.433,22.781 -1.439,19.636 27.503,57.831 33.032,65.885 0.594,0.865 0.948,1.868 1.029,2.915 l 2.936,26.793 c 0.24,3.105 2.83,5.381 5.945,5.381 h 72.49 c 3.139,0 5.74,-2.311 5.95,-5.443 l 2.37,-24.415 c 0.071,-1.064 0.422,-2.054 1.025,-2.934 5.251,-7.663 31.222,-42.014 28.766,-67.606 z"
   id="path1" />
</g>
<g
   style="fill:#ffffff"
   id="g3"
   transform="matrix(0.96826483,0,0,0.96826483,-326.38076,53.278812)"><g
     id="g2">
	<path
   d="m 358.10943,-9.0043554 c 0.76993,2.9181399 3.62953,4.8505648 6.68372,4.3963803 3.27691,-0.4881246 5.53913,-3.5402321 5.05172,-6.8183539 -2.06951,-13.899972 6.6375,-27.09068 20.24968,-30.68213 13.20995,-3.485323 26.74914,3.273314 32.17735,15.344946 l -10.69392,-6.22897 c -2.86345,-1.668717 -6.53675,-0.699552 -8.20328,2.16436 -0.83449,1.431244 -1.00924,3.065915 -0.61765,4.550124 0.3916,1.48421 1.35006,2.819892 2.78201,3.653155 l 21.97075,12.7974719 c 2.86345,1.6687159 6.53675,0.69955 8.20353,-2.1633939 l 13.13731,-22.54856 c 1.66749,-2.864166 0.69904,-6.538686 -2.16365,-8.204503 -2.86442,-1.668461 -6.53771,-0.699295 -8.2045,2.163649 l -5.22889,8.976978 c -7.76551,-17.378972 -27.23024,-27.118575 -46.22039,-22.108198 -19.53549,5.154259 -32.02767,24.091756 -29.05842,44.051708 0.0329,0.2229675 0.0783,0.4416494 0.13463,0.6553366 z"
   id="path1-6" />
</g></g></svg>
